<?xml version="1.0" standalone="no"?>
<!DOCTYPE svg PUBLIC "-//W3C//DTD SVG 20010904//EN"
 "http://www.w3.org/TR/2001/REC-SVG-20010904/DTD/svg10.dtd">
<svg version="1.0" xmlns="http://www.w3.org/2000/svg"
 width="64.000000pt" height="64.000000pt" viewBox="0 0 64.000000 64.000000"
 preserveAspectRatio="xMidYMid meet">

<g transform="translate(0.000000,64.000000) scale(0.100000,-0.100000)"
fill="#000000" stroke="none">
<path d="M335 449 c-16 -13 -33 -29 -38 -35 -4 -7 -20 -15 -36 -19 -29 -6
-110 -90 -124 -127 -10 -29 12 -75 42 -88 15 -6 56 -10 92 -8 51 2 64 6 67 20
3 15 -8 18 -80 20 -79 3 -83 4 -86 27 -2 14 5 32 17 45 12 11 31 33 42 49 14
18 29 27 49 27 22 0 33 7 44 28 15 29 53 52 86 52 33 0 83 -52 84 -88 1 -22 8
-34 23 -41 31 -14 40 -56 18 -81 -15 -16 -32 -20 -89 -21 -39 0 -66 -3 -59 -5
7 -3 9 -12 6 -21 -5 -13 4 -15 67 -11 64 3 75 7 96 31 34 40 28 106 -11 129
-7 4 -16 23 -19 41 -15 81 -127 125 -191 76z"/>
</g>
</svg>
