<?xml version="1.0" standalone="no"?>
<!DOCTYPE svg PUBLIC "-//W3C//DTD SVG 20010904//EN"
 "http://www.w3.org/TR/2001/REC-SVG-20010904/DTD/svg10.dtd">
<svg version="1.0" xmlns="http://www.w3.org/2000/svg"
 width="64.000000pt" height="64.000000pt" viewBox="0 0 64.000000 64.000000"
 preserveAspectRatio="xMidYMid meet">

<g transform="translate(0.000000,64.000000) scale(0.100000,-0.100000)"
fill="#000000" stroke="none">
<path d="M314 460 c-12 -4 -30 -19 -40 -33 -11 -13 -36 -30 -57 -36 -21 -7
-45 -25 -55 -39 -9 -15 -27 -37 -39 -49 -33 -32 -31 -85 4 -113 22 -17 38 -20
97 -18 58 2 71 6 74 21 3 15 -5 17 -70 17 -44 0 -79 5 -86 12 -20 20 -14 48
13 60 14 6 25 19 25 28 0 26 33 50 68 50 21 0 32 5 32 14 0 20 57 66 81 66 50
0 99 -49 99 -100 0 -11 9 -24 20 -30 25 -13 35 -52 20 -79 -9 -19 -20 -21 -88
-21 -48 0 -72 -4 -63 -9 7 -5 10 -14 7 -20 -5 -8 12 -11 54 -11 93 0 129 26
130 93 0 27 -7 45 -25 63 -14 14 -25 32 -25 40 0 26 -31 70 -60 88 -30 17 -82
20 -116 6z"/>
</g>
</svg>
