<?xml version="1.0" standalone="no"?>
<!DOCTYPE svg PUBLIC "-//W3C//DTD SVG 20010904//EN"
 "http://www.w3.org/TR/2001/REC-SVG-20010904/DTD/svg10.dtd">
<svg version="1.0" xmlns="http://www.w3.org/2000/svg"
 width="64.000000pt" height="64.000000pt" viewBox="0 0 64.000000 64.000000"
 preserveAspectRatio="xMidYMid meet">

<g transform="translate(0.000000,64.000000) scale(0.100000,-0.100000)"
fill="#000000" stroke="none">
<path d="M335 449 c-16 -13 -33 -29 -38 -35 -4 -7 -20 -15 -36 -19 -29 -6
-110 -90 -124 -127 -10 -28 12 -75 42 -87 15 -7 65 -11 116 -9 75 3 90 6 93
20 3 15 -9 18 -105 20 -105 3 -108 4 -111 27 -2 14 5 32 17 45 12 11 31 33 42
49 14 18 29 27 49 27 22 0 33 7 44 28 15 29 53 52 86 52 33 0 83 -52 84 -88 1
-22 8 -34 23 -41 31 -14 40 -56 18 -81 -13 -14 -32 -20 -64 -21 -25 0 -41 -3
-34 -5 7 -3 9 -12 6 -21 -5 -14 1 -15 43 -10 77 8 115 69 83 130 -7 12 -18 25
-24 29 -7 4 -16 23 -19 41 -15 81 -127 125 -191 76z"/>
</g>
</svg>
