<?xml version="1.0" standalone="no"?>
<!DOCTYPE svg PUBLIC "-//W3C//DTD SVG 20010904//EN"
 "http://www.w3.org/TR/2001/REC-SVG-20010904/DTD/svg10.dtd">
<svg version="1.0" xmlns="http://www.w3.org/2000/svg"
 width="64.000000pt" height="64.000000pt" viewBox="0 0 64.000000 64.000000"
 preserveAspectRatio="xMidYMid meet">

<g transform="translate(0.000000,64.000000) scale(0.100000,-0.100000)"
fill="#000000" stroke="none">
<path d="M314 460 c-12 -4 -30 -19 -40 -33 -11 -13 -36 -30 -57 -36 -21 -7
-45 -25 -55 -39 -9 -15 -27 -37 -39 -49 -33 -32 -31 -85 4 -113 23 -18 38 -20
122 -18 82 3 96 6 99 21 3 15 -7 17 -95 17 -64 0 -103 4 -111 12 -20 20 -14
48 13 60 14 6 25 19 25 28 0 26 33 50 68 50 21 0 32 5 32 14 0 20 57 66 81 66
50 0 99 -49 99 -100 0 -11 9 -24 20 -30 25 -13 35 -52 20 -79 -9 -17 -20 -21
-63 -21 -33 0 -47 -3 -38 -9 7 -5 10 -14 7 -20 -10 -15 59 -15 87 1 34 18 46
39 47 81 0 27 -7 45 -25 63 -14 14 -25 32 -25 40 0 26 -31 70 -60 88 -30 17
-82 20 -116 6z"/>
</g>
</svg>
