<svg width="319" height="190" viewBox="0 0 319 190" fill="none" xmlns="http://www.w3.org/2000/svg">
<g filter="url(#filter0_bd_0_1)">
<mask id="path-1-outside-1_0_1" maskUnits="userSpaceOnUse" x="15" y="16" width="255" height="155" fill="black">
<rect fill="white" x="15" y="16" width="255" height="155"/>
<path fill-rule="evenodd" clip-rule="evenodd" d="M197.882 87.0141C197.882 89.4233 197.758 91.8036 197.517 94.149C204.953 87.6871 214.664 83.7752 225.288 83.7752C248.68 83.7752 267.643 102.738 267.643 126.13C267.643 149.523 248.68 168.486 225.288 168.486H60.6379C60.6256 168.486 60.6133 168.486 60.601 168.486C60.5887 168.486 60.5764 168.486 60.5641 168.486H60.3518V168.485C36.3863 168.351 17 148.882 17 124.885C17 100.976 36.2441 81.5617 60.0878 81.2867C62.999 45.8508 92.6809 18 128.868 18C166.983 18 197.882 48.8987 197.882 87.0141Z"/>
</mask>
<path fill-rule="evenodd" clip-rule="evenodd" d="M197.882 87.0141C197.882 89.4233 197.758 91.8036 197.517 94.149C204.953 87.6871 214.664 83.7752 225.288 83.7752C248.68 83.7752 267.643 102.738 267.643 126.13C267.643 149.523 248.68 168.486 225.288 168.486H60.6379C60.6256 168.486 60.6133 168.486 60.601 168.486C60.5887 168.486 60.5764 168.486 60.5641 168.486H60.3518V168.485C36.3863 168.351 17 148.882 17 124.885C17 100.976 36.2441 81.5617 60.0878 81.2867C62.999 45.8508 92.6809 18 128.868 18C166.983 18 197.882 48.8987 197.882 87.0141Z" fill="url(#paint0_linear_0_1)" shape-rendering="crispEdges"/>
<path d="M197.517 94.149L195.528 93.9447L195.011 98.9771L198.829 95.6586L197.517 94.149ZM60.3518 168.486H58.3518V170.486H60.3518V168.486ZM60.3518 168.485H62.3518V166.496L60.363 166.485L60.3518 168.485ZM60.0878 81.2867L60.1109 83.2866L61.932 83.2655L62.0811 81.4504L60.0878 81.2867ZM199.507 94.3534C199.755 91.9401 199.882 89.4916 199.882 87.0141H195.882C195.882 89.3549 195.762 91.667 195.528 93.9447L199.507 94.3534ZM225.288 81.7752C214.163 81.7752 203.991 85.8733 196.206 92.6395L198.829 95.6586C205.915 89.5008 215.164 85.7752 225.288 85.7752V81.7752ZM269.643 126.13C269.643 101.634 249.785 81.7752 225.288 81.7752V85.7752C247.576 85.7752 265.643 103.843 265.643 126.13H269.643ZM225.288 170.486C249.785 170.486 269.643 150.627 269.643 126.13H265.643C265.643 148.418 247.576 166.486 225.288 166.486V170.486ZM225.288 166.486H60.6379V170.486H225.288V166.486ZM60.601 170.486C60.6079 170.486 60.6146 170.486 60.6207 170.486C60.6269 170.486 60.6324 170.486 60.6379 170.486V166.486C60.631 166.486 60.6242 166.486 60.6182 166.486C60.6119 166.486 60.6064 166.486 60.601 166.486V170.486ZM60.5641 170.486C60.5695 170.486 60.5751 170.486 60.5813 170.486C60.5873 170.486 60.5941 170.486 60.601 170.486V166.486C60.5956 166.486 60.59 166.486 60.5838 166.486C60.5778 166.486 60.571 166.486 60.5641 166.486V170.486ZM60.5641 166.486H60.3518V170.486H60.5641V166.486ZM62.3518 168.486V168.485H58.3518V168.486H62.3518ZM15 124.885C15 149.983 35.2756 170.345 60.3407 170.485L60.363 166.485C37.4971 166.357 19 147.781 19 124.885H15ZM60.0647 79.2868C35.1268 79.5744 15 99.879 15 124.885H19C19 102.073 37.3614 83.5489 60.1109 83.2866L60.0647 79.2868ZM128.868 16C91.6312 16 61.0902 44.6581 58.0945 81.1229L62.0811 81.4504C64.9077 47.0436 93.7306 20 128.868 20V16ZM199.882 87.0141C199.882 47.7941 168.088 16 128.868 16V20C165.879 20 195.882 50.0033 195.882 87.0141H199.882Z" fill="url(#paint1_linear_0_1)" mask="url(#path-1-outside-1_0_1)"/>
</g>
<g filter="url(#filter1_bd_0_1)">
<mask id="path-3-outside-2_0_1" maskUnits="userSpaceOnUse" x="149" y="11" width="155" height="90" fill="black">
<rect fill="white" x="149" y="11" width="155" height="90"/>
<path fill-rule="evenodd" clip-rule="evenodd" d="M259.972 52.4404C259.972 53.8172 259.898 55.1775 259.753 56.5179C264.232 52.825 270.082 50.5894 276.483 50.5894C290.576 50.5894 302 61.4265 302 74.7947C302 88.1629 290.576 99 276.483 99H177.288C177.281 99 177.274 99 177.267 99C177.26 99 177.254 99 177.247 99H177.117V98.9996C162.679 98.923 151 87.7967 151 74.0828C151 60.4193 162.594 49.3244 176.958 49.1673C178.712 28.9163 196.594 13 218.395 13C241.357 13 259.972 30.6581 259.972 52.4404Z"/>
</mask>
<path fill-rule="evenodd" clip-rule="evenodd" d="M259.972 52.4404C259.972 53.8172 259.898 55.1775 259.753 56.5179C264.232 52.825 270.082 50.5894 276.483 50.5894C290.576 50.5894 302 61.4265 302 74.7947C302 88.1629 290.576 99 276.483 99H177.288C177.281 99 177.274 99 177.267 99C177.26 99 177.254 99 177.247 99H177.117V98.9996C162.679 98.923 151 87.7967 151 74.0828C151 60.4193 162.594 49.3244 176.958 49.1673C178.712 28.9163 196.594 13 218.395 13C241.357 13 259.972 30.6581 259.972 52.4404Z" fill="url(#paint2_linear_0_1)" shape-rendering="crispEdges"/>
<path d="M259.753 56.5179L257.764 56.3026L257.236 61.185L261.025 58.0611L259.753 56.5179ZM177.117 99H175.117V101H177.117V99ZM177.117 98.9996H179.117V97.0102L177.128 96.9996L177.117 98.9996ZM176.958 49.1673L176.98 51.1671L178.794 51.1473L178.951 49.3398L176.958 49.1673ZM261.741 56.7332C261.894 55.3214 261.972 53.8893 261.972 52.4404H257.972C257.972 53.7451 257.902 55.0335 257.764 56.3026L261.741 56.7332ZM276.483 48.5894C269.612 48.5894 263.313 50.9904 258.48 54.9747L261.025 58.0611C265.151 54.6595 270.553 52.5894 276.483 52.5894V48.5894ZM304 74.7947C304 60.2238 291.58 48.5894 276.483 48.5894V52.5894C289.572 52.5894 300 62.6292 300 74.7947H304ZM276.483 101C291.58 101 304 89.3656 304 74.7947H300C300 86.9602 289.572 97 276.483 97V101ZM276.483 97H177.288V101H276.483V97ZM177.267 101C177.271 101 177.276 101 177.279 101C177.282 101 177.285 101 177.288 101V97C177.284 97 177.28 97 177.277 97C177.273 97 177.27 97 177.267 97V101ZM177.247 101C177.249 101 177.252 101 177.256 101C177.259 101 177.263 101 177.267 101V97C177.265 97 177.262 97 177.258 97C177.255 97 177.251 97 177.247 97V101ZM177.247 97H177.117V101H177.247V97ZM179.117 99V98.9996H175.117V99H179.117ZM149 74.0828C149 88.9951 161.669 100.918 177.107 101L177.128 96.9996C163.69 96.9283 153 86.5983 153 74.0828H149ZM176.936 47.1674C161.576 47.3354 149 59.2255 149 74.0828H153C153 61.6131 163.611 51.3134 176.98 51.1671L176.936 47.1674ZM218.395 11C195.636 11 176.816 27.6328 174.966 48.9947L178.951 49.3398C180.608 30.1998 197.552 15 218.395 15V11ZM261.972 52.4404C261.972 29.4554 242.361 11 218.395 11V15C240.353 15 257.972 31.8608 257.972 52.4404H261.972Z" fill="url(#paint3_linear_0_1)" mask="url(#path-3-outside-2_0_1)"/>
</g>
<defs>
<filter id="filter0_bd_0_1" x="0" y="5" width="284.643" height="184.486" filterUnits="userSpaceOnUse" color-interpolation-filters="sRGB">
<feFlood flood-opacity="0" result="BackgroundImageFix"/>
<feGaussianBlur in="BackgroundImageFix" stdDeviation="5"/>
<feComposite in2="SourceAlpha" operator="in" result="effect1_backgroundBlur_0_1"/>
<feColorMatrix in="SourceAlpha" type="matrix" values="0 0 0 0 0 0 0 0 0 0 0 0 0 0 0 0 0 0 127 0" result="hardAlpha"/>
<feOffset dy="4"/>
<feGaussianBlur stdDeviation="7.5"/>
<feComposite in2="hardAlpha" operator="out"/>
<feColorMatrix type="matrix" values="0 0 0 0 0 0 0 0 0 0 0 0 0 0 0 0 0 0 0.1 0"/>
<feBlend mode="normal" in2="effect1_backgroundBlur_0_1" result="effect2_dropShadow_0_1"/>
<feBlend mode="normal" in="SourceGraphic" in2="effect2_dropShadow_0_1" result="shape"/>
</filter>
<filter id="filter1_bd_0_1" x="134" y="0" width="185" height="120" filterUnits="userSpaceOnUse" color-interpolation-filters="sRGB">
<feFlood flood-opacity="0" result="BackgroundImageFix"/>
<feGaussianBlur in="BackgroundImageFix" stdDeviation="5"/>
<feComposite in2="SourceAlpha" operator="in" result="effect1_backgroundBlur_0_1"/>
<feColorMatrix in="SourceAlpha" type="matrix" values="0 0 0 0 0 0 0 0 0 0 0 0 0 0 0 0 0 0 127 0" result="hardAlpha"/>
<feOffset dy="4"/>
<feGaussianBlur stdDeviation="7.5"/>
<feComposite in2="hardAlpha" operator="out"/>
<feColorMatrix type="matrix" values="0 0 0 0 0 0 0 0 0 0 0 0 0 0 0 0 0 0 0.1 0"/>
<feBlend mode="normal" in2="effect1_backgroundBlur_0_1" result="effect2_dropShadow_0_1"/>
<feBlend mode="normal" in="SourceGraphic" in2="effect2_dropShadow_0_1" result="shape"/>
</filter>
<linearGradient id="paint0_linear_0_1" x1="96.5248" y1="33.5" x2="176.025" y2="163" gradientUnits="userSpaceOnUse">
<stop stop-color="#508ABF"/>
<stop offset="1" stop-color="#2073A2" stop-opacity="0.53"/>
</linearGradient>
<linearGradient id="paint1_linear_0_1" x1="177.525" y1="218.5" x2="99.5247" y2="-1.49999" gradientUnits="userSpaceOnUse">
<stop stop-color="#4195C6"/>
<stop offset="1" stop-color="#5E8398" stop-opacity="0.56"/>
<stop offset="1" stop-color="#AFE2FF" stop-opacity="0.5"/>
</linearGradient>
<linearGradient id="paint2_linear_0_1" x1="198.91" y1="21.858" x2="243.222" y2="97.9512" gradientUnits="userSpaceOnUse">
<stop stop-color="#508ABF"/>
<stop offset="1" stop-color="#2073A2" stop-opacity="0.53"/>
</linearGradient>
<linearGradient id="paint3_linear_0_1" x1="247.708" y1="127.582" x2="204.945" y2="0.434" gradientUnits="userSpaceOnUse">
<stop stop-color="#4195C6"/>
<stop offset="1" stop-color="#5E8398" stop-opacity="0.56"/>
<stop offset="1" stop-color="#AFE2FF" stop-opacity="0.5"/>
</linearGradient>
</defs>
</svg>
